<svg width="1600" height="900" viewBox="0 0 1600 900" fill="none" xmlns="http://www.w3.org/2000/svg">
  <rect width="1600" height="900" fill="#F6F7FB"/>
  <text x="80" y="70" font-family="Arial, sans-serif" font-size="28" font-weight="700" fill="#222222">TODO App Wireframe</text>
  <text x="80" y="105" font-family="Arial, sans-serif" font-size="16" fill="#666666">Layout: Todo Input | Todo List | Category Management</text>

  <rect x="60" y="140" width="360" height="680" rx="24" fill="white" stroke="#1F1F1F" stroke-width="2"/>
  <text x="90" y="190" font-family="Arial, sans-serif" font-size="14" font-weight="700" fill="#666666">LEFT PANEL</text>
  <text x="90" y="225" font-family="Arial, sans-serif" font-size="30" font-weight="700" fill="#111111">할 일 추가</text>
  <text x="90" y="260" font-family="Arial, sans-serif" font-size="15" fill="#666666">제목, 날짜/시간, 카테고리, 반복 요일 설정</text>

  <rect x="90" y="290" width="300" height="54" rx="12" fill="none" stroke="#3B3B3B" stroke-width="2"/>
  <text x="110" y="323" font-family="Arial, sans-serif" font-size="16" fill="#7A7A7A">할 일 제목 입력</text>

  <rect x="90" y="360" width="300" height="54" rx="12" fill="none" stroke="#3B3B3B" stroke-width="2"/>
  <text x="110" y="393" font-family="Arial, sans-serif" font-size="16" fill="#7A7A7A">날짜 + 시간 선택</text>

  <rect x="90" y="430" width="300" height="54" rx="12" fill="none" stroke="#3B3B3B" stroke-width="2"/>
  <text x="110" y="463" font-family="Arial, sans-serif" font-size="16" fill="#7A7A7A">카테고리 선택</text>

  <text x="90" y="525" font-family="Arial, sans-serif" font-size="15" font-weight="700" fill="#333333">반복 요일</text>
  <rect x="90" y="545" width="36" height="36" rx="18" fill="none" stroke="#333333" stroke-width="2"/>
  <text x="103" y="568" font-family="Arial, sans-serif" font-size="14" fill="#333333">월</text>
  <rect x="133" y="545" width="36" height="36" rx="18" fill="none" stroke="#333333" stroke-width="2"/>
  <text x="146" y="568" font-family="Arial, sans-serif" font-size="14" fill="#333333">화</text>
  <rect x="176" y="545" width="36" height="36" rx="18" fill="none" stroke="#333333" stroke-width="2"/>
  <text x="189" y="568" font-family="Arial, sans-serif" font-size="14" fill="#333333">수</text>
  <rect x="219" y="545" width="36" height="36" rx="18" fill="none" stroke="#333333" stroke-width="2"/>
  <text x="232" y="568" font-family="Arial, sans-serif" font-size="14" fill="#333333">목</text>
  <rect x="262" y="545" width="36" height="36" rx="18" fill="none" stroke="#333333" stroke-width="2"/>
  <text x="275" y="568" font-family="Arial, sans-serif" font-size="14" fill="#333333">금</text>
  <rect x="305" y="545" width="36" height="36" rx="18" fill="none" stroke="#333333" stroke-width="2"/>
  <text x="318" y="568" font-family="Arial, sans-serif" font-size="14" fill="#333333">토</text>
  <rect x="348" y="545" width="36" height="36" rx="18" fill="none" stroke="#333333" stroke-width="2"/>
  <text x="361" y="568" font-family="Arial, sans-serif" font-size="14" fill="#333333">일</text>

  <rect x="90" y="620" width="300" height="58" rx="14" fill="#111111"/>
  <text x="220" y="656" text-anchor="middle" font-family="Arial, sans-serif" font-size="18" font-weight="700" fill="white">추가</text>

  <rect x="450" y="140" width="800" height="680" rx="24" fill="white" stroke="#1F1F1F" stroke-width="2"/>
  <text x="480" y="190" font-family="Arial, sans-serif" font-size="14" font-weight="700" fill="#666666">CENTER PANEL</text>
  <text x="480" y="225" font-family="Arial, sans-serif" font-size="30" font-weight="700" fill="#111111">할 일 리스트</text>

  <rect x="1080" y="180" width="130" height="42" rx="21" fill="none" stroke="#333333" stroke-width="2"/>
  <text x="1145" y="206" text-anchor="middle" font-family="Arial, sans-serif" font-size="16" font-weight="700" fill="#333333">총 N개</text>

  <rect x="480" y="255" width="74" height="40" rx="20" fill="#111111"/>
  <text x="517" y="281" text-anchor="middle" font-family="Arial, sans-serif" font-size="15" font-weight="700" fill="white">전체</text>
  <rect x="565" y="255" width="96" height="40" rx="20" fill="none" stroke="#333333" stroke-width="2"/>
  <text x="613" y="281" text-anchor="middle" font-family="Arial, sans-serif" font-size="15" fill="#333333">공부</text>
  <rect x="672" y="255" width="96" height="40" rx="20" fill="none" stroke="#333333" stroke-width="2"/>
  <text x="720" y="281" text-anchor="middle" font-family="Arial, sans-serif" font-size="15" fill="#333333">운동</text>
  <rect x="779" y="255" width="96" height="40" rx="20" fill="none" stroke="#333333" stroke-width="2"/>
  <text x="827" y="281" text-anchor="middle" font-family="Arial, sans-serif" font-size="15" fill="#333333">개인</text>

  <rect x="480" y="325" width="740" height="100" rx="18" fill="#FAFAFC" stroke="#CFCFCF" stroke-width="2"/>
  <text x="500" y="382" font-family="Arial, sans-serif" font-size="28" fill="#999999">☆</text>
  <text x="538" y="382" font-family="Arial, sans-serif" font-size="20" fill="#999999">::</text>
  <rect x="575" y="359" width="20" height="20" rx="4" fill="none" stroke="#333333" stroke-width="2"/>
  <text x="610" y="376" font-family="Arial, sans-serif" font-size="17" fill="#111111">데이터베이스 과제 제출</text>
  <rect x="865" y="346" width="78" height="28" rx="14" fill="none" stroke="#333333" stroke-width="2"/>
  <text x="904" y="365" text-anchor="middle" font-family="Arial, sans-serif" font-size="12" fill="#333333">공부</text>
  <rect x="952" y="346" width="125" height="28" rx="14" fill="none" stroke="#333333" stroke-width="2"/>
  <text x="1014" y="365" text-anchor="middle" font-family="Arial, sans-serif" font-size="12" fill="#333333">마감 2026.04.10 18:30</text>
  <rect x="1086" y="346" width="90" height="28" rx="14" fill="none" stroke="#333333" stroke-width="2"/>
  <text x="1131" y="365" text-anchor="middle" font-family="Arial, sans-serif" font-size="12" fill="#333333">반복 월 · 수</text>
  <rect x="1148" y="390" width="58" height="28" rx="10" fill="none" stroke="#333333" stroke-width="2"/>
  <text x="1177" y="409" text-anchor="middle" font-family="Arial, sans-serif" font-size="13" fill="#333333">삭제</text>

  <rect x="480" y="440" width="740" height="100" rx="18" fill="#FAFAFC" stroke="#CFCFCF" stroke-width="2" stroke-dasharray="8 6"/>
  <text x="500" y="497" font-family="Arial, sans-serif" font-size="28" fill="#D4A017">★</text>
  <text x="538" y="497" font-family="Arial, sans-serif" font-size="20" fill="#999999">::</text>
  <rect x="575" y="474" width="20" height="20" rx="4" fill="none" stroke="#333333" stroke-width="2"/>
  <text x="610" y="491" font-family="Arial, sans-serif" font-size="17" fill="#111111">운동하기</text>
  <text x="610" y="513" font-family="Arial, sans-serif" font-size="13" fill="#666666">상단 고정 항목 예시</text>

  <rect x="1280" y="140" width="260" height="680" rx="24" fill="white" stroke="#1F1F1F" stroke-width="2"/>
  <text x="1310" y="190" font-family="Arial, sans-serif" font-size="14" font-weight="700" fill="#666666">RIGHT PANEL</text>
  <text x="1310" y="225" font-family="Arial, sans-serif" font-size="30" font-weight="700" fill="#111111">카테고리 관리</text>

  <rect x="1310" y="270" width="200" height="52" rx="12" fill="none" stroke="#333333" stroke-width="2"/>
  <text x="1330" y="302" font-family="Arial, sans-serif" font-size="16" fill="#7A7A7A">카테고리 제목</text>

  <text x="1310" y="355" font-family="Arial, sans-serif" font-size="15" font-weight="700" fill="#333333">탭 색상</text>
  <rect x="1310" y="370" width="200" height="44" rx="10" fill="none" stroke="#333333" stroke-width="2"/>
  <rect x="1324" y="382" width="28" height="20" rx="4" fill="#7C3AED" stroke="#333333" stroke-width="1.5"/>
  <text x="1365" y="397" font-family="Arial, sans-serif" font-size="14" fill="#666666">색상 선택기</text>

  <rect x="1310" y="435" width="200" height="54" rx="14" fill="#111111"/>
  <text x="1410" y="469" text-anchor="middle" font-family="Arial, sans-serif" font-size="17" font-weight="700" fill="white">카테고리 추가</text>

  <rect x="1310" y="525" width="200" height="68" rx="16" fill="#FAFAFC" stroke="#CFCFCF" stroke-width="2"/>
  <circle cx="1334" cy="559" r="8" fill="#7C3AED" stroke="#333333" stroke-width="1.5"/>
  <text x="1352" y="564" font-family="Arial, sans-serif" font-size="16" fill="#111111">공부</text>
  <rect x="1450" y="543" width="48" height="28" rx="10" fill="none" stroke="#333333" stroke-width="2"/>
  <text x="1474" y="562" text-anchor="middle" font-family="Arial, sans-serif" font-size="13" fill="#333333">삭제</text>

  <rect x="1310" y="607" width="200" height="68" rx="16" fill="#FAFAFC" stroke="#CFCFCF" stroke-width="2"/>
  <circle cx="1334" cy="641" r="8" fill="#16A34A" stroke="#333333" stroke-width="1.5"/>
  <text x="1352" y="646" font-family="Arial, sans-serif" font-size="16" fill="#111111">운동</text>
  <rect x="1450" y="625" width="48" height="28" rx="10" fill="none" stroke="#333333" stroke-width="2"/>
  <text x="1474" y="644" text-anchor="middle" font-family="Arial, sans-serif" font-size="13" fill="#333333">삭제</text>
</svg>
